<svg xmlns="http://www.w3.org/2000/svg" xmlns:xlink="http://www.w3.org/1999/xlink" width="1600" height="900" viewBox="0 0 1600 900" fill="none">
<path     fill="#DEDEDE"  d="M0 900L1600 900L1600 0L0 0L0 900Z">
</path>
<g style="mix-blend-mode:difference">
<path   fill-rule="evenodd"  fill="#858585"  d="M516 153.5L516 577.5C516 592.139 528.718 604 544.4 604L1055.6 604C1071.28 604 1084 592.139 1084 577.5L1084 153.5C1084 138.861 1071.28 127 1055.6 127L544.4 127C528.718 127 516 138.861 516 153.5ZM572.8 551L1027.2 551L1027.2 180L572.8 180L572.8 551ZM625 440.439L665.19 477.939L785.66 365.499L665.19 253.059L625 290.559L705.34 365.499L625 440.439ZM800 498L970.4 498L970.4 445L800 445L800 498Z">
</path>
</g>
<g  style="mix-blend-mode:difference">
<path     fill="#141414"  d="M509.5 423Q564.5 423 596.25 452.5Q628 482 628 536.5Q628 590.5 596.25 620Q564.5 649.5 509.5 649.5L424.5 649.5L424.5 773L342 773L342 423L509.5 423ZM502 583.5Q527 583.5 540.5 570Q554 556.5 554 536.5Q554 516 540.5 502.5Q527 489 502 489L424.5 489L424.5 583.5L502 583.5ZM808 503L808 532Q821 518 839.25 510.25Q857.5 502.5 875.5 502.5Q888 502.5 899 506L899 567.5Q885 564 872.5 564Q853.5 564 836.5 570.25Q819.5 576.5 808 590L808 773L728 773L728 503L808 503ZM1124 779.5Q1081.5 779.5 1049.25 762Q1017 744.5 999.5 712.25Q982 680 982 636Q982 568.5 1020 532.5Q1058 496.5 1124 496.5Q1189.5 496.5 1227.5 532.5Q1265.5 568.5 1265.5 636Q1265.5 680 1248 712.25Q1230.5 744.5 1198.5 762Q1166.5 779.5 1124 779.5ZM1061 636Q1061 674.5 1078.5 698Q1096 721.5 1124 721.5Q1152 721.5 1169.25 698Q1186.5 674.5 1186.5 636Q1186.5 596 1169.75 575.25Q1153 554.5 1124 554.5Q1095 554.5 1078 575.25Q1061 596 1061 636Z">
</path>
</g>
</svg>
